HIERARCHY
ROOT mixamorig:Hips
{
	OFFSET -0.000008 104.274872 1.554316
	CHANNELS 6 Xposition Yposition Zposition Xrotation Yrotation Zrotation
	JOINT mixamorig:Spine
	{
		OFFSET -0.000005 10.181595 0.131519
		CHANNELS 6 Xposition Yposition Zposition Xrotation Yrotation Zrotation
		JOINT mixamorig:Spine1
		{
			OFFSET -0.000000 9.893959 -1.470707
			CHANNELS 6 Xposition Yposition Zposition Xrotation Yrotation Zrotation
			JOINT mixamorig:Spine2
			{
				OFFSET -0.000000 9.220757 -1.370641
				CHANNELS 6 Xposition Yposition Zposition Xrotation Yrotation Zrotation
				JOINT mixamorig:Neck
				{
					OFFSET 0.000001 16.740417 -2.049036
					CHANNELS 6 Xposition Yposition Zposition Xrotation Yrotation Zrotation
					JOINT mixamorig:Head
					{
						OFFSET 0.000000 9.617874 1.685006
						CHANNELS 6 Xposition Yposition Zposition Xrotation Yrotation Zrotation
						JOINT mixamorig:HeadTop_End
						{
							OFFSET 0.000002 22.037354 7.501101
							CHANNELS 6 Xposition Yposition Zposition Xrotation Yrotation Zrotation
							End Site
							{
								OFFSET 0.000168 2310.654297 -282.823242
							}
						}
					}
				}
				JOINT mixamorig:RightShoulder
				{
					OFFSET -4.569970 11.014908 -2.160885
					CHANNELS 6 Xposition Yposition Zposition Xrotation Yrotation Zrotation
					JOINT mixamorig:RightArm
					{
						OFFSET -10.592851 -0.524811 -2.232101
						CHANNELS 6 Xposition Yposition Zposition Xrotation Yrotation Zrotation
						JOINT mixamorig:RightForeArm
						{
							OFFSET -27.841511 0.000031 -0.000004
							CHANNELS 6 Xposition Yposition Zposition Xrotation Yrotation Zrotation
							JOINT mixamorig:RightHand
							{
								OFFSET -28.328831 -0.000015 0.000015
								CHANNELS 6 Xposition Yposition Zposition Xrotation Yrotation Zrotation
								JOINT mixamorig:RightHandThumb1
								{
									OFFSET -2.464806 -1.573990 2.681852
									CHANNELS 6 Xposition Yposition Zposition Xrotation Yrotation Zrotation
									JOINT mixamorig:RightHandThumb2
									{
										OFFSET -3.215179 -1.872803 1.924282
										CHANNELS 6 Xposition Yposition Zposition Xrotation Yrotation Zrotation
										JOINT mixamorig:RightHandThumb3
										{
											OFFSET -2.654831 -1.527969 1.512609
											CHANNELS 6 Xposition Yposition Zposition Xrotation Yrotation Zrotation
											JOINT mixamorig:RightHandThumb4
											{
												OFFSET -2.018814 -1.152008 1.108052
												CHANNELS 6 Xposition Yposition Zposition Xrotation Yrotation Zrotation
												End Site
												{
													OFFSET -188.809540 -114.533607 132.431396
												}
											}
										}
									}
								}
								JOINT mixamorig:RightHandIndex1
								{
									OFFSET -9.108284 -0.517868 2.259835
									CHANNELS 6 Xposition Yposition Zposition Xrotation Yrotation Zrotation
									JOINT mixamorig:RightHandIndex2
									{
										OFFSET -3.699989 0.000000 0.001215
										CHANNELS 6 Xposition Yposition Zposition Xrotation Yrotation Zrotation
										JOINT mixamorig:RightHandIndex3
										{
											OFFSET -2.850006 0.000031 -0.000522
											CHANNELS 6 Xposition Yposition Zposition Xrotation Yrotation Zrotation
											JOINT mixamorig:RightHandIndex4
											{
												OFFSET -2.772186 -0.000015 -0.000020
												CHANNELS 6 Xposition Yposition Zposition Xrotation Yrotation Zrotation
												End Site
												{
													OFFSET -277.218445 0.000000 -0.050231
												}
											}
										}
									}
								}
								JOINT mixamorig:RightHandMiddle1
								{
									OFFSET -9.532516 -0.000031 -0.000023
									CHANNELS 6 Xposition Yposition Zposition Xrotation Yrotation Zrotation
									JOINT mixamorig:RightHandMiddle2
									{
										OFFSET -3.700005 -0.000015 0.003713
										CHANNELS 6 Xposition Yposition Zposition Xrotation Yrotation Zrotation
										JOINT mixamorig:RightHandMiddle3
										{
											OFFSET -2.949974 0.000015 -0.002054
											CHANNELS 6 Xposition Yposition Zposition Xrotation Yrotation Zrotation
											JOINT mixamorig:RightHandMiddle4
											{
												OFFSET -2.946640 0.000000 -0.000156
												CHANNELS 6 Xposition Yposition Zposition Xrotation Yrotation Zrotation
												End Site
												{
													OFFSET -294.664337 0.000000 -0.113670
												}
											}
										}
									}
								}
								JOINT mixamorig:RightHandRing1
								{
									OFFSET -9.103600 -0.043076 -1.865134
									CHANNELS 6 Xposition Yposition Zposition Xrotation Yrotation Zrotation
									JOINT mixamorig:RightHandRing2
									{
										OFFSET -3.379288 0.000000 -0.001055
										CHANNELS 6 Xposition Yposition Zposition Xrotation Yrotation Zrotation
										JOINT mixamorig:RightHandRing3
										{
											OFFSET -2.889687 -0.000015 0.000379
											CHANNELS 6 Xposition Yposition Zposition Xrotation Yrotation Zrotation
											JOINT mixamorig:RightHandRing4
											{
												OFFSET -2.638809 -0.000015 0.000941
												CHANNELS 6 Xposition Yposition Zposition Xrotation Yrotation Zrotation
												End Site
												{
													OFFSET -263.880371 0.000000 0.516020
												}
											}
										}
									}
								}
								JOINT mixamorig:RightHandPinky1
								{
									OFFSET -8.076683 -0.486710 -3.806280
									CHANNELS 6 Xposition Yposition Zposition Xrotation Yrotation Zrotation
									JOINT mixamorig:RightHandPinky2
									{
										OFFSET -3.600014 -0.000015 -0.003747
										CHANNELS 6 Xposition Yposition Zposition Xrotation Yrotation Zrotation
										JOINT mixamorig:RightHandPinky3
										{
											OFFSET -2.099983 0.000000 -0.005739
											CHANNELS 6 Xposition Yposition Zposition Xrotation Yrotation Zrotation
											JOINT mixamorig:RightHandPinky4
											{
												OFFSET -2.115768 -0.000031 -0.003680
												CHANNELS 6 Xposition Yposition Zposition Xrotation Yrotation Zrotation
												End Site
												{
													OFFSET -211.577087 0.000000 -0.350686
												}
											}
										}
									}
								}
							}
						}
					}
				}
				JOINT mixamorig:LeftShoulder
				{
					OFFSET 4.570447 11.014725 -2.160855
					CHANNELS 6 Xposition Yposition Zposition Xrotation Yrotation Zrotation
					JOINT mixamorig:LeftArm
					{
						OFFSET 10.592371 -0.524597 -2.232119
						CHANNELS 6 Xposition Yposition Zposition Xrotation Yrotation Zrotation
						JOINT mixamorig:LeftForeArm
						{
							OFFSET 27.841532 -0.000031 0.000026
							CHANNELS 6 Xposition Yposition Zposition Xrotation Yrotation Zrotation
							JOINT mixamorig:LeftHand
							{
								OFFSET 28.328846 -0.000061 0.000022
								CHANNELS 6 Xposition Yposition Zposition Xrotation Yrotation Zrotation
								JOINT mixamorig:LeftHandThumb1
								{
									OFFSET 2.466141 -1.576172 2.681732
									CHANNELS 6 Xposition Yposition Zposition Xrotation Yrotation Zrotation
									JOINT mixamorig:LeftHandThumb2
									{
										OFFSET 3.217812 -1.872070 1.916482
										CHANNELS 6 Xposition Yposition Zposition Xrotation Yrotation Zrotation
										JOINT mixamorig:LeftHandThumb3
										{
											OFFSET 2.656029 -1.528778 1.514513
											CHANNELS 6 Xposition Yposition Zposition Xrotation Yrotation Zrotation
											JOINT mixamorig:LeftHandThumb4
											{
												OFFSET 2.020889 -1.154053 1.115139
												CHANNELS 6 Xposition Yposition Zposition Xrotation Yrotation Zrotation
												End Site
												{
													OFFSET 190.885437 -115.081749 130.048782
												}
											}
										}
									}
								}
								JOINT mixamorig:LeftHandIndex1
								{
									OFFSET 9.109314 -0.518021 2.259871
									CHANNELS 6 Xposition Yposition Zposition Xrotation Yrotation Zrotation
									JOINT mixamorig:LeftHandIndex2
									{
										OFFSET 3.699989 0.000000 -0.000322
										CHANNELS 6 Xposition Yposition Zposition Xrotation Yrotation Zrotation
										JOINT mixamorig:LeftHandIndex3
										{
											OFFSET 2.850006 0.000000 0.000352
											CHANNELS 6 Xposition Yposition Zposition Xrotation Yrotation Zrotation
											JOINT mixamorig:LeftHandIndex4
											{
												OFFSET 2.774864 -0.000031 -0.000027
												CHANNELS 6 Xposition Yposition Zposition Xrotation Yrotation Zrotation
												End Site
												{
													OFFSET 277.486267 0.000000 -0.009857
												}
											}
										}
									}
								}
								JOINT mixamorig:LeftHandMiddle1
								{
									OFFSET 9.533394 0.000061 0.000044
									CHANNELS 6 Xposition Yposition Zposition Xrotation Yrotation Zrotation
									JOINT mixamorig:LeftHandMiddle2
									{
										OFFSET 3.699989 -0.000015 -0.000231
										CHANNELS 6 Xposition Yposition Zposition Xrotation Yrotation Zrotation
										JOINT mixamorig:LeftHandMiddle3
										{
											OFFSET 2.949997 -0.000015 -0.000059
											CHANNELS 6 Xposition Yposition Zposition Xrotation Yrotation Zrotation
											JOINT mixamorig:LeftHandMiddle4
											{
												OFFSET 2.952896 0.000031 0.000063
												CHANNELS 6 Xposition Yposition Zposition Xrotation Yrotation Zrotation
												End Site
												{
													OFFSET 295.289337 0.000000 0.022810
												}
											}
										}
									}
								}
								JOINT mixamorig:LeftHandRing1
								{
									OFFSET 9.104523 -0.042999 -1.865074
									CHANNELS 6 Xposition Yposition Zposition Xrotation Yrotation Zrotation
									JOINT mixamorig:LeftHandRing2
									{
										OFFSET 3.150009 -0.000031 0.000043
										CHANNELS 6 Xposition Yposition Zposition Xrotation Yrotation Zrotation
										JOINT mixamorig:LeftHandRing3
										{
											OFFSET 2.949982 -0.000015 0.000040
											CHANNELS 6 Xposition Yposition Zposition Xrotation Yrotation Zrotation
											JOINT mixamorig:LeftHandRing4
											{
												OFFSET 2.644348 0.000000 0.000057
												CHANNELS 6 Xposition Yposition Zposition Xrotation Yrotation Zrotation
												End Site
												{
													OFFSET 264.434631 0.000000 0.012105
												}
											}
										}
									}
								}
								JOINT mixamorig:LeftHandPinky1
								{
									OFFSET 8.077789 -0.486847 -3.806259
									CHANNELS 6 Xposition Yposition Zposition Xrotation Yrotation Zrotation
									JOINT mixamorig:LeftHandPinky2
									{
										OFFSET 3.599953 0.000031 0.014727
										CHANNELS 6 Xposition Yposition Zposition Xrotation Yrotation Zrotation
										JOINT mixamorig:LeftHandPinky3
										{
											OFFSET 2.100021 0.000015 0.007705
											CHANNELS 6 Xposition Yposition Zposition Xrotation Yrotation Zrotation
											JOINT mixamorig:LeftHandPinky4
											{
												OFFSET 2.125504 0.000031 0.007517
												CHANNELS 6 Xposition Yposition Zposition Xrotation Yrotation Zrotation
												End Site
												{
													OFFSET 212.550781 0.000000 0.625752
												}
											}
										}
									}
								}
							}
						}
					}
				}
			}
		}
	}
	JOINT mixamorig:RightUpLeg
	{
		OFFSET -8.207787 -6.751648 -1.599560
		CHANNELS 6 Xposition Yposition Zposition Xrotation Yrotation Zrotation
		JOINT mixamorig:RightLeg
		{
			OFFSET -0.000002 -44.370117 0.345942
			CHANNELS 6 Xposition Yposition Zposition Xrotation Yrotation Zrotation
			JOINT mixamorig:RightFoot
			{
				OFFSET 0.000003 -44.423679 -3.043532
				CHANNELS 6 Xposition Yposition Zposition Xrotation Yrotation Zrotation
				JOINT mixamorig:RightToeBase
				{
					OFFSET -0.000002 -8.728671 10.710558
					CHANNELS 6 Xposition Yposition Zposition Xrotation Yrotation Zrotation
					JOINT mixamorig:RightToe_End
					{
						OFFSET -0.000001 -0.000679 9.278119
						CHANNELS 6 Xposition Yposition Zposition Xrotation Yrotation Zrotation
						End Site
						{
							OFFSET 0.000000 -0.067690 927.812134
						}
					}
				}
			}
		}
	}
	JOINT mixamorig:LeftUpLeg
	{
		OFFSET 8.207793 -6.751686 -1.599556
		CHANNELS 6 Xposition Yposition Zposition Xrotation Yrotation Zrotation
		JOINT mixamorig:LeftLeg
		{
			OFFSET -0.000004 -44.370014 0.346954
			CHANNELS 6 Xposition Yposition Zposition Xrotation Yrotation Zrotation
			JOINT mixamorig:LeftFoot
			{
				OFFSET -0.000001 -44.423672 -3.044401
				CHANNELS 6 Xposition Yposition Zposition Xrotation Yrotation Zrotation
				JOINT mixamorig:LeftToeBase
				{
					OFFSET -0.000002 -8.728669 10.710558
					CHANNELS 6 Xposition Yposition Zposition Xrotation Yrotation Zrotation
					JOINT mixamorig:LeftToe_End
					{
						OFFSET -0.000003 -0.000679 9.278133
						CHANNELS 6 Xposition Yposition Zposition Xrotation Yrotation Zrotation
						End Site
						{
							OFFSET 0.000000 -0.068021 927.813477
						}
					}
				}
			}
		}
	}
}
MOTION
Frames: 3
Frame Time: 0.033333
0.000006 104.270477 1.554256 0.000010 0.000003 -0.000113 -0.000005 10.181587 0.131522 0.000001 -0.000003 0.000084 -0.000000 9.893967 -1.470711 0.000001 0.000000 -0.000000 -0.000000 9.220802 -1.370642 0.000000 -0.000000 -0.000000 0.000001 16.740433 -2.049030 0.000000 -0.000000 -0.000000 0.000000 9.617859 1.685014 0.000000 0.000000 0.000000 0.000002 22.037384 7.501101 0.000000 -0.000000 0.000000 -4.569968 11.014880 -2.160881 0.000008 0.000001 -0.000038 -10.592786 -0.524843 -2.231753 70.580477 64.933673 -48.487165 -27.841488 0.000021 0.000571 48.591325 106.153393 -61.989363 -28.328831 0.000020 0.000033 -0.000325 -0.000045 0.000008 -2.464572 -1.574206 2.682081 101.416978 -135.266091 148.717903 -3.214917 -1.873043 1.924576 246.581386 -42.672013 -55.149375 -2.654510 -1.528191 1.513056 207.930711 -42.412982 -89.669032 -2.018833 -1.151999 1.108064 -0.000004 0.000002 0.000002 -9.108060 -0.517892 2.260422 178.592385 10.396863 -165.079470 -3.700068 0.000308 0.001516 95.460377 12.727480 -13.964398 -2.850067 0.000225 -0.000460 40.275682 10.716278 -3.939196 -2.772173 -0.000014 -0.000023 -0.000002 -0.000001 0.000001 -9.532290 -0.000096 0.000555 178.181344 9.036181 -158.946671 -3.699997 0.000366 0.003923 91.793228 0.230765 -0.155527 -2.950003 0.000205 -0.002036 37.923382 0.888278 -0.303082 -2.946630 -0.000001 -0.000151 -0.000003 -0.000001 -0.000001 -9.103381 -0.042840 -1.864547 185.358821 6.072508 97.203386 -3.379085 0.000391 -0.000782 119.197606 -23.189232 38.537478 -2.889544 0.000358 0.000447 74.169058 -25.200569 19.165762 -2.638808 -0.000017 0.000928 0.000000 -0.000000 -0.000000 -8.076644 -0.486562 -3.805703 193.243100 3.343007 27.480341 -3.599792 -0.000161 -0.003204 185.639337 -8.224559 -116.122860 -2.099761 -0.000186 -0.005204 -172.807843 -6.984165 -91.546480 -2.115772 -0.000047 -0.003679 -0.000002 0.000000 -0.000008 4.570446 11.014691 -2.160851 -0.000018 0.000010 -0.000021 10.592521 -0.524542 -2.232396 63.539775 -64.553067 42.725982 27.841784 -0.000081 -0.000114 217.619936 -78.093828 225.558022 28.328833 0.000001 0.000025 0.000018 -0.000090 -0.000000 2.465927 -1.576150 2.681890 -46.743291 143.818280 9.181533 3.217723 -1.872060 1.916529 181.323846 48.580304 122.670129 2.656009 -1.528809 1.514620 9.530878 146.315657 -76.983772 2.020884 -1.154079 1.115139 -0.000001 0.000004 0.000002 9.109446 -0.517843 2.259826 136.142431 -24.187085 56.015546 3.700048 0.000159 -0.000450 87.123011 -17.136759 16.325544 2.850043 0.000171 0.000205 69.727933 -8.134256 5.670969 2.774900 -0.000015 -0.000020 -0.000000 0.000001 0.000001 9.533518 0.000239 -0.000010 127.430348 -22.548816 43.943105 3.700045 0.000140 -0.000376 72.242754 -15.464820 11.315993 2.950046 0.000108 -0.000193 52.558463 -4.216277 2.083948 2.952848 -0.000018 0.000062 -0.000000 0.000001 -0.000002 9.104663 -0.042837 -1.865129 133.639741 -25.707230 56.110038 3.150042 0.000212 -0.000124 90.119770 -9.916132 9.938550 2.949955 0.000165 -0.000154 69.708453 8.800607 -6.134306 2.644316 0.000027 0.000060 0.000000 -0.000003 0.000001 8.077563 -0.486612 -3.806067 211.927014 -24.760240 -75.127669 3.599720 0.000408 0.014873 200.673362 -10.906566 -56.058576 2.100008 0.000348 0.007831 198.734763 1.569060 6.894894 2.125506 -0.000033 0.007519 0.000002 0.000003 0.000002 -8.207786 -6.751667 -1.599560 -0.077001 -0.000003 0.000080 -0.000002 -44.370110 0.345938 0.153719 -0.000000 -0.000000 0.000000 -44.423679 -3.043532 -0.076700 0.000000 -0.000002 -0.000006 -8.728667 10.710559 -0.000009 -0.000000 -0.000000 -0.000001 -0.000679 9.278123 0.000000 -0.000000 -0.000000 8.207792 -6.751710 -1.599556 -0.074518 -0.000003 0.000081 -0.000002 -44.370014 0.346960 0.148822 0.000002 0.000000 -0.000001 -44.423664 -3.044403 -0.074314 0.000000 -0.000002 -0.000004 -8.728671 10.710558 0.000007 -0.000000 -0.000000 0.000000 -0.000680 9.278137 -0.000000 0.000000 -0.000001 
0.000006 104.270477 1.554256 0.000010 0.000003 -0.000113 -0.000005 10.181587 0.131522 0.000001 -0.000003 0.000084 -0.000000 9.893967 -1.470711 0.000001 0.000000 -0.000000 -0.000000 9.220802 -1.370642 0.000000 -0.000000 -0.000000 0.000001 16.740433 -2.049030 0.000000 -0.000000 -0.000000 0.000000 9.617859 1.685014 0.000000 0.000000 0.000000 0.000002 22.037384 7.501101 0.000000 -0.000000 0.000000 -4.569968 11.014880 -2.160881 0.000008 0.000001 -0.000038 -10.592791 -0.524842 -2.231753 70.670137 64.766545 -48.420109 -27.841488 0.000006 0.000584 48.444380 105.836424 -61.526078 -28.328829 0.000005 0.000011 -0.000323 -0.000046 0.000007 -2.464573 -1.574226 2.682066 103.127537 -137.062472 150.178375 -3.214929 -1.873033 1.924590 246.828721 -42.154906 -54.705502 -2.654528 -1.528199 1.513063 207.870851 -42.023821 -89.444551 -2.018827 -1.152014 1.108067 -0.000004 -0.000003 0.000002 -9.108018 -0.517843 2.260409 180.984631 10.500430 -191.051033 -3.700082 0.000315 0.001549 106.378584 12.693987 -16.876561 -2.850086 0.000280 -0.000406 58.283036 11.716078 -6.547391 -2.772162 -0.000030 -0.000019 0.000002 -0.000001 -0.000000 -9.532235 -0.000033 0.000552 181.588570 9.147235 -200.803313 -3.700011 0.000378 0.003967 99.706207 0.928167 -1.004362 -2.949993 0.000231 -0.002015 49.548422 0.785770 -0.359831 -2.946629 0.000013 -0.000156 0.000001 0.000000 -0.000001 -9.103436 -0.042823 -1.864552 188.000233 6.072076 74.281408 -3.379090 0.000414 -0.000782 119.584796 -21.558865 36.205293 -2.889566 0.000361 0.000436 71.842307 -20.758900 15.100100 -2.638815 -0.000033 0.000944 0.000000 -0.000001 -0.000001 -8.076633 -0.486563 -3.805714 194.248831 4.181005 31.924021 -3.599840 -0.000156 -0.003197 185.974986 -6.243229 -98.373821 -2.099796 -0.000190 -0.005202 -173.877109 -5.691639 -89.690090 -2.115761 -0.000045 -0.003674 -0.000002 -0.000000 -0.000000 4.570446 11.014691 -2.160851 -0.000018 0.000010 -0.000021 10.592518 -0.524540 -2.232392 63.709464 -64.290569 42.657089 27.841776 -0.000043 -0.000129 217.981635 -78.130718 225.953777 28.328833 -0.000001 0.000025 0.000016 -0.000089 -0.000001 2.465961 -1.576162 2.681880 -40.546192 143.632499 -2.251199 3.217735 -1.872048 1.916528 189.716946 47.856465 111.884414 2.656001 -1.528808 1.514621 12.002491 145.109855 -78.972375 2.020868 -1.154081 1.115147 -0.000003 0.000004 0.000003 9.109432 -0.517793 2.259816 128.260557 -20.436281 40.756473 3.700037 0.000163 -0.000437 86.487250 -12.336560 11.623468 2.850034 0.000177 0.000188 72.430700 -4.489203 3.287363 2.774886 -0.000032 -0.000034 -0.000000 -0.000002 0.000000 9.533512 0.000241 0.000003 129.679584 -23.008595 46.835567 3.700055 0.000133 -0.000381 73.031497 -13.602948 10.090797 2.950038 0.000103 -0.000203 55.380280 -1.891286 0.993937 2.952866 -0.000011 0.000067 -0.000001 0.000000 -0.000000 9.104661 -0.042840 -1.865111 136.077080 -25.723843 59.044909 3.150035 0.000226 -0.000127 91.859931 -9.401497 9.712109 2.949943 0.000183 -0.000150 71.950347 9.190032 -6.676757 2.644318 0.000070 0.000055 -0.000003 -0.000000 -0.000003 8.077568 -0.486603 -3.806061 216.405801 -24.989588 -68.151450 3.599746 0.000391 0.014901 207.744261 -12.790705 -49.530370 2.099983 0.000407 0.007869 208.445762 -1.016433 -5.523487 2.125506 -0.000028 0.007518 -0.000002 -0.000001 -0.000001 -8.207786 -6.751667 -1.599560 -0.077001 -0.000003 0.000080 -0.000002 -44.370110 0.345938 0.153719 -0.000000 -0.000000 0.000000 -44.423679 -3.043532 -0.076700 0.000000 -0.000002 -0.000006 -8.728667 10.710559 -0.000009 -0.000000 -0.000000 -0.000001 -0.000679 9.278123 0.000000 -0.000000 -0.000000 8.207792 -6.751710 -1.599556 -0.074518 -0.000003 0.000081 -0.000002 -44.370014 0.346960 0.148822 0.000002 0.000000 -0.000001 -44.423664 -3.044403 -0.074314 0.000000 -0.000002 -0.000004 -8.728671 10.710558 0.000007 -0.000000 -0.000000 0.000000 -0.000680 9.278137 -0.000000 0.000000 -0.000001 
0.000006 104.270477 1.554256 0.000010 0.000003 -0.000113 -0.000005 10.181587 0.131522 0.000001 -0.000003 0.000084 -0.000000 9.893967 -1.470711 0.000001 0.000000 -0.000000 -0.000000 9.220802 -1.370642 0.000000 -0.000000 -0.000000 0.000001 16.740433 -2.049030 0.000000 -0.000000 -0.000000 0.000000 9.617859 1.685014 0.000000 0.000000 0.000000 0.000002 22.037384 7.501101 0.000000 -0.000000 0.000000 -4.569968 11.014880 -2.160881 0.000008 0.000001 -0.000038 -10.592789 -0.524840 -2.231756 70.725537 64.446619 -48.199494 -27.841492 0.000019 0.000576 48.383253 105.780410 -61.403127 -28.328835 0.000006 0.000028 -0.000323 -0.000045 0.000006 -2.464581 -1.574201 2.682054 103.561992 -137.431411 150.522234 -3.214916 -1.873044 1.924587 247.948544 -41.794361 -53.711235 -2.654522 -1.528226 1.513046 210.259451 -42.159257 -87.128482 -2.018838 -1.151999 1.108069 -0.000004 -0.000002 0.000004 -9.108022 -0.517826 2.260411 181.332233 10.823870 -194.335138 -3.700072 0.000307 0.001558 105.428751 12.775194 -16.697917 -2.850065 0.000310 -0.000425 59.263543 10.303651 -5.871015 -2.772178 0.000000 -0.000024 0.000000 0.000001 -0.000000 -9.532239 0.000058 0.000550 183.519410 9.802798 -220.176913 -3.700015 0.000388 0.003973 101.157055 1.320656 -1.507323 -2.949997 0.000258 -0.002001 54.418334 -0.551459 0.286577 -2.946624 0.000029 -0.000155 -0.000003 0.000001 -0.000000 -9.103461 -0.042811 -1.864545 189.245322 6.329415 68.636619 -3.379068 0.000413 -0.000767 120.693964 -21.712242 37.220962 -2.889581 0.000367 0.000444 74.170090 -20.182545 15.305228 -2.638811 -0.000030 0.000941 -0.000001 -0.000000 0.000001 -8.076648 -0.486567 -3.805718 195.128792 3.857171 27.813825 -3.599908 -0.000126 -0.003194 189.172580 -6.291929 -73.347038 -2.099886 -0.000149 -0.005194 -171.316143 -5.660913 -69.220552 -2.115769 -0.000058 -0.003683 -0.000000 -0.000000 -0.000003 4.570446 11.014691 -2.160851 -0.000018 0.000010 -0.000021 10.592514 -0.524536 -2.232389 63.877459 -63.866258 42.464635 27.841780 -0.000046 -0.000112 218.126353 -78.076596 226.162631 28.328825 -0.000030 0.000030 0.000021 -0.000088 -0.000001 2.465967 -1.576159 2.681880 -42.906845 146.590422 1.602942 3.217739 -1.872061 1.916548 190.684292 46.335119 109.656160 2.656038 -1.528797 1.514612 15.574025 148.889409 -86.320573 2.020899 -1.154081 1.115143 0.000001 0.000002 0.000002 9.109429 -0.517779 2.259823 131.188782 -20.454730 43.341317 3.700027 0.000157 -0.000477 85.037016 -13.133684 12.066561 2.850050 0.000165 0.000197 69.023590 -5.091991 3.501566 2.774907 -0.000015 -0.000043 0.000001 -0.000002 -0.000002 9.533528 0.000259 0.000001 130.543821 -22.183187 46.096687 3.700058 0.000120 -0.000366 72.190271 -14.870681 10.868463 2.950020 0.000098 -0.000206 52.209293 -3.859313 1.892896 2.952859 -0.000043 0.000068 -0.000000 -0.000003 -0.000000 9.104681 -0.042819 -1.865114 136.260566 -24.789016 57.407549 3.150028 0.000224 -0.000092 92.476916 -9.666063 10.092911 2.949956 0.000188 -0.000159 72.869676 8.179421 -6.041831 2.644322 0.000031 0.000063 0.000002 0.000003 0.000001 8.077582 -0.486594 -3.806061 216.251726 -22.657577 -63.227758 3.599780 0.000404 0.014903 206.289499 -10.903051 -45.309812 2.100000 0.000398 0.007864 205.730489 0.302914 -0.441700 2.125498 0.000003 0.007507 -0.000003 -0.000000 -0.000001 -8.207786 -6.751667 -1.599560 -0.077001 -0.000003 0.000080 -0.000002 -44.370110 0.345938 0.153719 -0.000000 -0.000000 0.000000 -44.423679 -3.043532 -0.076700 0.000000 -0.000002 -0.000006 -8.728667 10.710559 -0.000009 -0.000000 -0.000000 -0.000001 -0.000679 9.278123 0.000000 -0.000000 -0.000000 8.207792 -6.751710 -1.599556 -0.074518 -0.000003 0.000081 -0.000002 -44.370014 0.346960 0.148822 0.000002 0.000000 -0.000001 -44.423664 -3.044403 -0.074314 0.000000 -0.000002 -0.000004 -8.728671 10.710558 0.000007 -0.000000 -0.000000 0.000000 -0.000680 9.278137 -0.000000 0.000000 -0.000001 
